<svg width="24" height="24" viewBox="0 0 24 24" fill="none" xmlns="http://www.w3.org/2000/svg">
<path d="M12 8.11117C11.1421 8.11117 10.4445 7.4136 10.4445 6.55568C10.4445 5.69776 11.1421 5 12 5C12.8575 5 13.5555 5.69757 13.5555 6.55549C13.5555 7.41341 12.8575 8.11117 12 8.11117ZM12 19C11.1421 19 10.4445 18.3021 10.4445 17.4445C10.4445 16.587 11.1421 15.889 12 15.889C12.8575 15.889 13.5555 16.587 13.5555 17.4445C13.5555 18.3021 12.8575 19 12 19ZM12 13.5555C11.1421 13.5555 10.4445 12.8575 10.4445 12C10.4445 11.1421 11.1421 10.4445 12 10.4445C12.8575 10.4445 13.5555 11.1421 13.5555 12C13.5555 12.8575 12.8575 13.5555 12 13.5555ZM12 8.11117C11.1421 8.11117 10.4445 7.4136 10.4445 6.55568C10.4445 5.69776 11.1421 5 12 5C12.8575 5 13.5555 5.69757 13.5555 6.55549C13.5555 7.41341 12.8575 8.11117 12 8.11117ZM6.55549 8.11117C5.69757 8.11117 5 7.4136 5 6.55568C5 5.69776 5.69757 5.00019 6.55549 5.00019C7.41341 5.00019 8.11099 5.69776 8.11099 6.55568C8.11099 7.4136 7.41341 8.11117 6.55549 8.11117ZM6.55549 8.11117C5.69757 8.11117 5 7.4136 5 6.55568C5 5.69776 5.69757 5.00019 6.55549 5.00019C7.41341 5.00019 8.11099 5.69776 8.11099 6.55568C8.11099 7.4136 7.41341 8.11117 6.55549 8.11117ZM12 19C11.1421 19 10.4445 18.3021 10.4445 17.4445C10.4445 16.587 11.1421 15.889 12 15.889C12.8575 15.889 13.5555 16.587 13.5555 17.4445C13.5555 18.3021 12.8575 19 12 19ZM8.11117 12C8.11117 11.1421 7.4136 10.4445 6.55568 10.4445C5.69776 10.4445 5 11.1421 5 12C5 12.8575 5.69757 13.5555 6.55549 13.5555C7.41341 13.5555 8.11117 12.8575 8.11117 12ZM19 12C19 11.1421 18.3021 10.4445 17.4445 10.4445C16.587 10.4445 15.889 11.1421 15.889 12C15.889 12.8575 16.587 13.5555 17.4445 13.5555C18.3021 13.5555 19 12.8575 19 12ZM8.11117 12C8.11117 11.1421 7.4136 10.4445 6.55568 10.4445C5.69776 10.4445 5 11.1421 5 12C5 12.8575 5.69757 13.5555 6.55549 13.5555C7.41341 13.5555 8.11117 12.8575 8.11117 12ZM8.11117 17.4445C8.11117 16.587 7.4136 15.889 6.55568 15.889C5.69776 15.889 5 16.587 5 17.4445C5 18.3021 5.69757 19 6.55549 19C7.41341 19 8.11117 18.3021 8.11117 17.4445ZM8.11117 17.4445C8.11117 16.587 7.4136 15.889 6.55568 15.889C5.69776 15.889 5 16.587 5 17.4445C5 18.3021 5.69757 19 6.55549 19C7.41341 19 8.11117 18.3021 8.11117 17.4445ZM17.4445 8.11117C16.587 8.11117 15.889 7.4136 15.889 6.55568C15.889 5.69776 16.587 5.00019 17.4445 5.00019C18.3021 5.00019 19 5.69776 19 6.55568C19 7.4136 18.3021 8.11117 17.4445 8.11117ZM17.4445 8.11117C16.587 8.11117 15.889 7.4136 15.889 6.55568C15.889 5.69776 16.587 5.00019 17.4445 5.00019C18.3021 5.00019 19 5.69776 19 6.55568C19 7.4136 18.3021 8.11117 17.4445 8.11117ZM19 17.4445C19 16.587 18.3021 15.889 17.4445 15.889C16.587 15.889 15.889 16.587 15.889 17.4445C15.889 18.3021 16.587 19 17.4445 19C18.3021 19 19 18.3021 19 17.4445ZM19 17.4445C19 16.587 18.3021 15.889 17.4445 15.889C16.587 15.889 15.889 16.587 15.889 17.4445C15.889 18.3021 16.587 19 17.4445 19C18.3021 19 19 18.3021 19 17.4445ZM19 12C19 11.1421 18.3021 10.4445 17.4445 10.4445C16.587 10.4445 15.889 11.1421 15.889 12C15.889 12.8575 16.587 13.5555 17.4445 13.5555C18.3021 13.5555 19 12.8575 19 12ZM12 13.5555C11.1421 13.5555 10.4445 12.8575 10.4445 12C10.4445 11.1421 11.1421 10.4445 12 10.4445C12.8575 10.4445 13.5555 11.1421 13.5555 12C13.5555 12.8575 12.8575 13.5555 12 13.5555Z" fill="#FCFCFC"/>
</svg>
