<svg width="24" height="24" viewBox="0 0 24 24" fill="none" xmlns="http://www.w3.org/2000/svg">
<path d="M11 4H8C5.23858 4 3 6.23858 3 9V16C3 18.7614 5.23858 21 8 21H16C18.7614 21 21 18.7614 21 16V10" stroke="#231F1F" stroke-width="1.5" stroke-linecap="round" stroke-linejoin="round"/>
<path d="M8 16H16" stroke="#231F1F" stroke-width="1.5" stroke-linecap="round" stroke-linejoin="round"/>
<path fill-rule="evenodd" clip-rule="evenodd" d="M11.9715 8.19999L16.7322 3.43929C17.318 2.85351 18.2678 2.85351 18.8536 3.43929L19.5607 4.1464C20.1464 4.73219 20.1464 5.68194 19.5607 6.26772L14.8 11.0285C14.4175 11.4109 13.9213 11.6591 13.3858 11.7356L11.5709 11.9948C11.4151 12.0171 11.2579 11.9647 11.1466 11.8534C11.0353 11.7421 10.9829 11.5849 11.0052 11.4292L11.2645 9.61425C11.341 9.07876 11.5891 8.58251 11.9715 8.19999Z" stroke="#231F1F" stroke-width="1.5" stroke-linecap="round" stroke-linejoin="round"/>
<path d="M18.2093 7.61939L15.3809 4.79097" stroke="#231F1F" stroke-width="1.5" stroke-linecap="round" stroke-linejoin="round"/>
</svg>
