<svg width="36" height="36" viewBox="0 0 36 36" fill="none" xmlns="http://www.w3.org/2000/svg">
<path d="M9.5 14H26.5" stroke="#231F1F" stroke-width="1.5" stroke-linecap="round" stroke-linejoin="round"/>
<path d="M9.5 10H26.5" stroke="#231F1F" stroke-width="1.5" stroke-linecap="round" stroke-linejoin="round"/>
<path fill-rule="evenodd" clip-rule="evenodd" d="M9 25V19C9 18.4477 9.44772 18 10 18H12.3787C12.7765 18 13.158 18.158 13.4393 18.4393L14.5607 19.5607C14.842 19.842 15.2235 20 15.6213 20H20.3787C20.7765 20 21.158 19.842 21.4393 19.5607L22.5607 18.4393C22.842 18.158 23.2235 18 23.6213 18H26C26.5523 18 27 18.4477 27 19V25C27 26.1046 26.1046 27 25 27H11C9.89543 27 9 26.1046 9 25Z" stroke="#231F1F" stroke-width="1.5" stroke-linecap="round" stroke-linejoin="round"/>
</svg>
