<svg width="24" height="24" viewBox="0 0 24 24" fill="none" xmlns="http://www.w3.org/2000/svg">
<path d="M11.2414 21.0055H5.24703C4.00387 21.0055 2.99609 19.9978 2.99609 18.7546V8.14019C2.99609 7.83621 3.05784 7.5354 3.17717 7.25582L4.41268 4.36462C4.76723 3.53612 5.58137 2.9986 6.48255 2.99805H17.5161C18.4174 2.99834 19.2317 3.53594 19.586 4.36462L20.8215 7.25582C20.9415 7.53522 21.0036 7.8361 21.0036 8.14019V15.949" stroke="white" stroke-width="1.5" stroke-linecap="round" stroke-linejoin="round"/>
<path d="M11.9983 2.99805V8.00013" stroke="white" stroke-width="1.5" stroke-linecap="round" stroke-linejoin="round"/>
<path d="M6.99609 17.0041H8.99693" stroke="white" stroke-width="1.5" stroke-linecap="round" stroke-linejoin="round"/>
<path d="M21.0036 10.0008C21.0036 8.8958 20.1078 8 19.0028 8H4.99693C3.8919 8 2.99609 8.8958 2.99609 10.0008" stroke="white" stroke-width="1.5" stroke-linecap="round" stroke-linejoin="round"/>
<path d="M16.9521 11.8359C17.9456 11.8359 18.8623 12.3716 19.3496 13.2373L22.3965 18.6523L22.4814 18.8145C22.874 19.6333 22.8376 20.5985 22.376 21.3896C21.8835 22.2334 20.9808 22.7527 20.0039 22.7539H13.9053C12.9279 22.7539 12.0237 22.2354 11.5303 21.3916C11.0371 20.548 11.0286 19.506 11.5078 18.6543L14.5547 13.2383V13.2373L14.6514 13.0791C15.1571 12.3069 16.0208 11.8361 16.9521 11.8359Z" stroke="white" stroke-width="1.5" stroke-linecap="round" stroke-linejoin="round"/>
<path d="M16.9514 17.4237V15.5879" stroke="white" stroke-width="1.5" stroke-linecap="round" stroke-linejoin="round"/>
<path d="M16.9504 19.4482C16.9263 19.4482 16.9033 19.4579 16.8864 19.475C16.8694 19.4921 16.8601 19.5152 16.8603 19.5393C16.8603 19.5762 16.8826 19.6094 16.9168 19.6235C16.9509 19.6375 16.9902 19.6295 17.0161 19.6033C17.0421 19.577 17.0496 19.5377 17.0352 19.5037C17.0208 19.4698 16.9873 19.4478 16.9504 19.4482" stroke="white" stroke-width="1.5" stroke-linecap="round" stroke-linejoin="round"/>
</svg>
