<svg width="16" height="16" viewBox="0 0 16 16" fill="none" xmlns="http://www.w3.org/2000/svg">
<path fill-rule="evenodd" clip-rule="evenodd" d="M10.7771 2H3.33911C2.59911 2 2.00044 2.60267 2.00577 3.34333L2.07511 12.6767C2.08044 13.4093 2.67577 14 3.40844 14H12.6624C13.3991 14 13.9958 13.4033 13.9958 12.6667V5.21867C13.9958 4.86533 13.8551 4.526 13.6051 4.276L11.7198 2.39067C11.4698 2.14067 11.1311 2 10.7771 2Z" stroke="#231F1F" stroke-width="1.25" stroke-linecap="round" stroke-linejoin="round"/>
<path d="M10.6633 2V4.606C10.6633 4.974 10.3646 5.27267 9.99662 5.27267H5.99662C5.62862 5.27267 5.32996 4.974 5.32996 4.606V2" stroke="#231F1F" stroke-width="1.25" stroke-linecap="round" stroke-linejoin="round"/>
<path d="M4.66785 14V8.85733C4.66785 8.384 5.05185 8 5.52518 8H10.4778C10.9505 8 11.3345 8.384 11.3345 8.85733V14" stroke="#231F1F" stroke-width="1.25" stroke-linecap="round" stroke-linejoin="round"/>
</svg>
