<svg width="36" height="36" viewBox="0 0 36 36" fill="none" xmlns="http://www.w3.org/2000/svg">
<path d="M19.7678 16.2322C20.7441 17.2085 20.7441 18.7915 19.7678 19.7678C18.7915 20.7441 17.2085 20.7441 16.2322 19.7678C15.2559 18.7915 15.2559 17.2085 16.2322 16.2322C17.2085 15.2559 18.7915 15.2559 19.7678 16.2322" stroke="#231F1F" stroke-width="1.25" stroke-linecap="round" stroke-linejoin="round"/>
<path fill-rule="evenodd" clip-rule="evenodd" d="M21.4833 23.6042V23.6042C21.9025 24.0233 22.5833 24.0233 23.0025 23.6042L23.6042 23.0025C24.0233 22.5833 24.0233 21.9025 23.6042 21.4833V21.4833C23.2858 21.165 23.1925 20.6875 23.3675 20.2725C23.3858 20.2283 23.4042 20.1842 23.4217 20.1392C23.5742 19.7508 23.9525 19.5008 24.3692 19.5008H24.425C25.0183 19.5008 25.4992 19.02 25.4992 18.4267V17.5758C25.4992 16.9825 25.0183 16.5017 24.425 16.5017H24.3692C23.9525 16.5017 23.5742 16.2508 23.4217 15.8633C23.4042 15.8183 23.3858 15.7742 23.3675 15.73C23.1925 15.315 23.2858 14.8375 23.6042 14.5192V14.5192C24.0233 14.1 24.0233 13.4192 23.6042 13L23.0025 12.3983C22.5833 11.9792 21.9025 11.9792 21.4833 12.3983V12.3983C21.165 12.7167 20.6875 12.81 20.2725 12.635C20.2283 12.6167 20.1842 12.5983 20.1392 12.5808C19.7508 12.4258 19.5 12.0467 19.5 11.63V11.5742C19.5 10.9808 19.0192 10.5 18.4258 10.5H17.575C16.9808 10.5 16.5 10.9808 16.5 11.5742V11.63C16.5 12.0467 16.2492 12.425 15.8617 12.5775C15.8167 12.5958 15.7725 12.6133 15.7283 12.6325C15.3133 12.8075 14.8358 12.7142 14.5175 12.3958V12.3958C14.0983 11.9767 13.4175 11.9767 12.9983 12.3958L12.3958 12.9975C11.9767 13.4167 11.9767 14.0975 12.3958 14.5167V14.5167C12.7142 14.835 12.8075 15.3125 12.6325 15.7275C12.6133 15.7725 12.5958 15.8167 12.5783 15.8617C12.4258 16.2492 12.0467 16.5 11.63 16.5H11.5742C10.9808 16.5 10.5 16.9808 10.5 17.5742V18.425C10.5 19.0192 10.9808 19.5 11.5742 19.5H11.63C12.0467 19.5 12.425 19.7508 12.5775 20.1383C12.595 20.1833 12.6133 20.2275 12.6317 20.2717C12.8067 20.6867 12.7133 21.1642 12.395 21.4825V21.4825C11.9758 21.9017 11.9758 22.5825 12.395 23.0017L12.9967 23.6033C13.4158 24.0225 14.0967 24.0225 14.5158 23.6033V23.6033C14.8342 23.285 15.3117 23.1917 15.7267 23.3667C15.7708 23.385 15.815 23.4033 15.86 23.4208C16.2483 23.5733 16.4983 23.9517 16.4983 24.3683V24.4242C16.4983 25.0175 16.9792 25.4983 17.5725 25.4983H18.4233C19.0167 25.4983 19.4975 25.0175 19.4975 24.4242V24.3683C19.4975 23.9517 19.7483 23.5733 20.1358 23.4208C20.1808 23.4033 20.225 23.385 20.2692 23.3667C20.6867 23.1925 21.1642 23.2858 21.4833 23.6042V23.6042Z" stroke="#231F1F" stroke-width="1.25" stroke-linecap="round" stroke-linejoin="round"/>
</svg>
